{
  "asset": {
    "version": "2.0",
    "generator": "THREE.GLTFExporter r176"
  },
  "scenes": [
    {
      "name": "Scene",
      "nodes": [
        26,
        27
      ]
    }
  ],
  "scene": 0,
  "nodes": [
    {
      "name": "Part.1",
      "mesh": 0
    },
    {
      "matrix": [
        0.1,
        0,
        0,
        0,
        0,
        0.1,
        0,
        0,
        0,
        0,
        0.1,
        0,
        0,
        -2.5,
        0,
        1
      ],
      "name": "mano-izquierda.obj",
      "children": [
        0
      ]
    },
    {
      "matrix": [
        1,
        0,
        0,
        0,
        0,
        1,
        0,
        0,
        0,
        0,
        1,
        0,
        -10,
        -15,
        -4.5,
        1
      ],
      "name": "Part.1",
      "mesh": 1
    },
    {
      "matrix": [
        0.1,
        0,
        0,
        0,
        0,
        0.1,
        0,
        0,
        0,
        0,
        0.1,
        0,
        1,
        -1,
        0.5,
        1
      ],
      "name": "helado.obj",
      "children": [
        2
      ]
    },
    {
      "name": "rmano-acc",
      "children": [
        1,
        3
      ]
    },
    {
      "matrix": [
        1,
        0,
        0,
        0,
        0,
        1,
        0,
        0,
        0,
        0,
        1,
        0,
        0,
        -25,
        0,
        1
      ],
      "name": "Part.1",
      "mesh": 2
    },
    {
      "matrix": [
        0.1,
        0,
        0,
        0,
        0,
        0.1,
        0,
        0,
        0,
        0,
        0.1,
        0,
        0,
        0,
        0,
        1
      ],
      "name": "brazo-izquierda.obj",
      "children": [
        5
      ]
    },
    {
      "matrix": [
        0.9995189788033255,
        -0.006837459268033392,
        -0.030249961367170522,
        0,
        -0.0009175801633053383,
        0.968446810430584,
        -0.2492186457981673,
        0,
        0.03099950094116409,
        0.24912652311142316,
        0.9679746930699233,
        0,
        0,
        1.5,
        0,
        1
      ],
      "name": "rbrazo-izquierdo",
      "children": [
        4,
        6
      ]
    },
    {
      "matrix": [
        1,
        0,
        0,
        0,
        0,
        1,
        0,
        0,
        0,
        0,
        1,
        0,
        0,
        -40,
        0,
        1
      ],
      "name": "Part.1",
      "mesh": 3
    },
    {
      "matrix": [
        0.1,
        0,
        0,
        0,
        0,
        0.1,
        0,
        0,
        0,
        0,
        0.1,
        0,
        0,
        3,
        0,
        1
      ],
      "name": "acc-cabeza.obj",
      "children": [
        8
      ]
    },
    {
      "matrix": [
        1,
        0,
        0,
        0,
        0,
        1,
        0,
        0,
        0,
        0,
        1,
        0,
        0,
        -30,
        0,
        1
      ],
      "name": "Part.1",
      "mesh": 4
    },
    {
      "matrix": [
        0.1,
        0,
        0,
        0,
        0,
        0.1,
        0,
        0,
        0,
        0,
        0.1,
        0,
        0,
        2,
        0,
        1
      ],
      "name": "cabeza.obj",
      "children": [
        10
      ]
    },
    {
      "name": "Part.1",
      "mesh": 5
    },
    {
      "matrix": [
        0.1,
        0,
        0,
        0,
        0,
        0.1,
        0,
        0,
        0,
        0,
        0.1,
        0,
        0,
        -2.5,
        0,
        1
      ],
      "name": "mano-derecha.obj",
      "children": [
        12
      ]
    },
    {
      "matrix": [
        1,
        0,
        0,
        0,
        0,
        1,
        0,
        0,
        0,
        0,
        1,
        0,
        0,
        -25,
        0,
        1
      ],
      "name": "Part.1",
      "mesh": 6
    },
    {
      "matrix": [
        0.1,
        0,
        0,
        0,
        0,
        0.1,
        0,
        0,
        0,
        0,
        0.1,
        0,
        0,
        0,
        0,
        1
      ],
      "name": "brazo-derecha.obj",
      "children": [
        14
      ]
    },
    {
      "matrix": [
        1,
        0,
        0,
        0,
        0,
        1,
        0,
        0,
        0,
        0,
        1,
        0,
        0,
        1.5,
        0,
        1
      ],
      "name": "rbrazo-derecho",
      "children": [
        13,
        15
      ]
    },
    {
      "matrix": [
        1,
        0,
        0,
        0,
        0,
        1,
        0,
        0,
        0,
        0,
        1,
        0,
        0,
        -25,
        0,
        1
      ],
      "name": "Part.1",
      "mesh": 7
    },
    {
      "matrix": [
        0.1,
        0,
        0,
        0,
        0,
        0.1,
        0,
        0,
        0,
        0,
        0.1,
        0,
        0,
        1.5,
        0,
        1
      ],
      "name": "torso.obj",
      "children": [
        17
      ]
    },
    {
      "name": "Part.1",
      "mesh": 8
    },
    {
      "matrix": [
        0.1,
        0,
        0,
        0,
        0,
        0.1,
        0,
        0,
        0,
        0,
        0.1,
        0,
        0,
        -1,
        0,
        1
      ],
      "name": "cadera.obj",
      "children": [
        19
      ]
    },
    {
      "matrix": [
        1,
        0,
        0,
        0,
        0,
        1,
        0,
        0,
        0,
        0,
        1,
        0,
        0,
        1,
        0,
        1
      ],
      "name": "rcadera-cabeza",
      "children": [
        7,
        9,
        11,
        16,
        18,
        20
      ]
    },
    {
      "matrix": [
        1,
        0,
        0,
        0,
        0,
        1,
        0,
        0,
        0,
        0,
        1,
        0,
        0,
        -10,
        0,
        1
      ],
      "name": "Part.1",
      "mesh": 9
    },
    {
      "matrix": [
        0.1,
        0,
        0,
        0,
        0,
        0.1,
        0,
        0,
        0,
        0,
        0.1,
        0,
        0,
        1,
        0,
        1
      ],
      "name": "pierna-izquierda.obj",
      "children": [
        22
      ]
    },
    {
      "matrix": [
        1,
        0,
        0,
        0,
        0,
        1,
        0,
        0,
        0,
        0,
        1,
        0,
        0,
        -10,
        0,
        1
      ],
      "name": "Part.1",
      "mesh": 10
    },
    {
      "matrix": [
        0.1,
        0,
        0,
        0,
        0,
        0.1,
        0,
        0,
        0,
        0,
        0.1,
        0,
        0,
        1,
        0,
        1
      ],
      "name": "pierna-derecha.obj",
      "children": [
        24
      ]
    },
    {
      "name": "lego-completo",
      "children": [
        21,
        23,
        25
      ]
    },
    {
      "matrix": [
        1,
        0,
        0,
        0,
        0,
        1,
        0,
        0,
        0,
        0,
        1,
        0,
        5,
        10,
        7.5,
        1
      ],
      "name": "DirectionalLight",
      "extensions": {
        "KHR_lights_punctual": {
          "light": 0
        }
      }
    }
  ],
  "bufferViews": [
    {
      "buffer": 0,
      "byteOffset": 0,
      "byteLength": 22680,
      "target": 34962,
      "byteStride": 12
    },
    {
      "buffer": 0,
      "byteOffset": 22680,
      "byteLength": 22680,
      "target": 34962,
      "byteStride": 12
    },
    {
      "buffer": 0,
      "byteOffset": 45360,
      "byteLength": 15696,
      "target": 34962,
      "byteStride": 12
    },
    {
      "buffer": 0,
      "byteOffset": 61056,
      "byteLength": 15696,
      "target": 34962,
      "byteStride": 12
    },
    {
      "buffer": 0,
      "byteOffset": 76752,
      "byteLength": 34272,
      "target": 34962,
      "byteStride": 12
    },
    {
      "buffer": 0,
      "byteOffset": 111024,
      "byteLength": 34272,
      "target": 34962,
      "byteStride": 12
    },
    {
      "buffer": 0,
      "byteOffset": 145296,
      "byteLength": 160920,
      "target": 34962,
      "byteStride": 12
    },
    {
      "buffer": 0,
      "byteOffset": 306216,
      "byteLength": 160920,
      "target": 34962,
      "byteStride": 12
    },
    {
      "buffer": 0,
      "byteOffset": 467136,
      "byteLength": 41472,
      "target": 34962,
      "byteStride": 12
    },
    {
      "buffer": 0,
      "byteOffset": 508608,
      "byteLength": 41472,
      "target": 34962,
      "byteStride": 12
    },
    {
      "buffer": 0,
      "byteOffset": 550080,
      "byteLength": 22680,
      "target": 34962,
      "byteStride": 12
    },
    {
      "buffer": 0,
      "byteOffset": 572760,
      "byteLength": 22680,
      "target": 34962,
      "byteStride": 12
    },
    {
      "buffer": 0,
      "byteOffset": 595440,
      "byteLength": 34272,
      "target": 34962,
      "byteStride": 12
    },
    {
      "buffer": 0,
      "byteOffset": 629712,
      "byteLength": 34272,
      "target": 34962,
      "byteStride": 12
    },
    {
      "buffer": 0,
      "byteOffset": 663984,
      "byteLength": 54000,
      "target": 34962,
      "byteStride": 12
    },
    {
      "buffer": 0,
      "byteOffset": 717984,
      "byteLength": 54000,
      "target": 34962,
      "byteStride": 12
    },
    {
      "buffer": 0,
      "byteOffset": 771984,
      "byteLength": 36000,
      "target": 34962,
      "byteStride": 8
    },
    {
      "buffer": 0,
      "byteOffset": 807984,
      "byteLength": 45216,
      "target": 34962,
      "byteStride": 12
    },
    {
      "buffer": 0,
      "byteOffset": 853200,
      "byteLength": 45216,
      "target": 34962,
      "byteStride": 12
    },
    {
      "buffer": 0,
      "byteOffset": 898416,
      "byteLength": 22680,
      "target": 34962,
      "byteStride": 12
    },
    {
      "buffer": 0,
      "byteOffset": 921096,
      "byteLength": 22680,
      "target": 34962,
      "byteStride": 12
    },
    {
      "buffer": 0,
      "byteOffset": 943776,
      "byteLength": 22680,
      "target": 34962,
      "byteStride": 12
    },
    {
      "buffer": 0,
      "byteOffset": 966456,
      "byteLength": 22680,
      "target": 34962,
      "byteStride": 12
    }
  ],
  "buffers": [
    {
      "byteLength": 989136,
      "uri": "data:application/octet-stream;base64,"
    }
  ],
  "accessors": [
    {
      "bufferView": 0,
      "componentType": 5126,
      "count": 1890,
      "max": [
        12.720999717712402,
        22.28700065612793,
        8.553999900817871
      ],
      "min": [
        7.396999835968018,
        12.741999626159668,
        -1.5299999713897705
      ],
      "type": "VEC3"
    },
    {
      "bufferView": 1,
      "componentType": 5126,
      "count": 1890,
      "max": [
        0.9959278106689453,
        0.9610760807991028,
        0.9979800581932068
      ],
      "min": [
        -0.9974002838134766,
        -0.9844989776611328,
        -0.9482606649398804
      ],
      "type": "VEC3"
    },
    {
      "bufferView": 2,
      "componentType": 5126,
      "count": 1308,
      "max": [
        13.746000289916992,
        24.035999298095703,
        20.235000610351562
      ],
      "min": [
        4.96999979019165,
        12.210000038146973,
        2.499000072479248
      ],
      "type": "VEC3"
    },
    {
      "bufferView": 3,
      "componentType": 5126,
      "count": 1308,
      "max": [
        0.9953142404556274,
        0.9828948378562927,
        0.9912323355674744
      ],
      "min": [
        -0.995661199092865,
        -0.9957065582275391,
        -0.9976019263267517
      ],
      "type": "VEC3"
    },
    {
      "bufferView": 4,
      "componentType": 5126,
      "count": 2856,
      "max": [
        11.567000389099121,
        27.66900062561035,
        4.525000095367432
      ],
      "min": [
        2.8519999980926514,
        16.261999130249023,
        -2.6470000743865967
      ],
      "type": "VEC3"
    },
    {
      "bufferView": 5,
      "componentType": 5126,
      "count": 2856,
      "max": [
        0.9897619485855103,
        0.990272045135498,
        0.9983699321746826
      ],
      "min": [
        -0.9897222518920898,
        -0.9775276184082031,
        -0.998494565486908
      ],
      "type": "VEC3"
    },
    {
      "bufferView": 6,
      "componentType": 5126,
      "count": 13410,
      "max": [
        7.650000095367432,
        42.44599914550781,
        6.385000228881836
      ],
      "min": [
        -7.672999858856201,
        30.548999786376953,
        -7.367000102996826
      ],
      "type": "VEC3"
    },
    {
      "bufferView": 7,
      "componentType": 5126,
      "count": 13410,
      "max": [
        0.9996004700660706,
        0.9997785687446594,
        0.9998713135719299
      ],
      "min": [
        -0.9998417496681213,
        -1,
        -0.9997478127479553
      ],
      "type": "VEC3"
    },
    {
      "bufferView": 8,
      "componentType": 5126,
      "count": 3456,
      "max": [
        5.099999904632568,
        40.20000076293945,
        5.099999904632568
      ],
      "min": [
        -5.099999904632568,
        28.81999969482422,
        -5.099999904632568
      ],
      "type": "VEC3"
    },
    {
      "bufferView": 9,
      "componentType": 5126,
      "count": 3456,
      "max": [
        0.9914236068725586,
        1,
        0.9914236068725586
      ],
      "min": [
        -0.9914236068725586,
        -1,
        -0.9914236068725586
      ],
      "type": "VEC3"
    },
    {
      "bufferView": 10,
      "componentType": 5126,
      "count": 1890,
      "max": [
        -7.396999835968018,
        22.28700065612793,
        8.553999900817871
      ],
      "min": [
        -12.720999717712402,
        12.741999626159668,
        -1.5299999713897705
      ],
      "type": "VEC3"
    },
    {
      "bufferView": 11,
      "componentType": 5126,
      "count": 1890,
      "max": [
        0.9974002838134766,
        0.9610760807991028,
        0.9979800581932068
      ],
      "min": [
        -0.9959278106689453,
        -0.9844989776611328,
        -0.9482606649398804
      ],
      "type": "VEC3"
    },
    {
      "bufferView": 12,
      "componentType": 5126,
      "count": 2856,
      "max": [
        -2.8519999980926514,
        27.66900062561035,
        4.525000095367432
      ],
      "min": [
        -11.567000389099121,
        16.261999130249023,
        -2.6470000743865967
      ],
      "type": "VEC3"
    },
    {
      "bufferView": 13,
      "componentType": 5126,
      "count": 2856,
      "max": [
        0.9897222518920898,
        0.990272045135498,
        0.9983699321746826
      ],
      "min": [
        -0.9897619485855103,
        -0.9775276184082031,
        -0.998494565486908
      ],
      "type": "VEC3"
    },
    {
      "bufferView": 14,
      "componentType": 5126,
      "count": 4500,
      "max": [
        7.699999809265137,
        34.599998474121094,
        3.9600000381469727
      ],
      "min": [
        -7.699999809265137,
        16.020000457763672,
        -3.9600000381469727
      ],
      "type": "VEC3"
    },
    {
      "bufferView": 15,
      "componentType": 5126,
      "count": 4500,
      "max": [
        1,
        1,
        1
      ],
      "min": [
        -1,
        -1,
        -1
      ],
      "type": "VEC3"
    },
    {
      "bufferView": 16,
      "componentType": 5126,
      "count": 4500,
      "max": [
        0.9800000190734863,
        0.9269999861717224
      ],
      "min": [
        0,
        0
      ],
      "type": "VEC2"
    },
    {
      "bufferView": 17,
      "componentType": 5126,
      "count": 3768,
      "max": [
        7.099999904632568,
        20.799999237060547,
        3.9600000381469727
      ],
      "min": [
        -7.099999904632568,
        7.60099983215332,
        -3.9600000381469727
      ],
      "type": "VEC3"
    },
    {
      "bufferView": 18,
      "componentType": 5126,
      "count": 3768,
      "max": [
        1,
        1,
        1
      ],
      "min": [
        -1,
        -1,
        -1
      ],
      "type": "VEC3"
    },
    {
      "bufferView": 19,
      "componentType": 5126,
      "count": 1890,
      "max": [
        7.699999809265137,
        14.800000190734863,
        4.360000133514404
      ],
      "min": [
        0.5,
        0.019999999552965164,
        -3.5999999046325684
      ],
      "type": "VEC3"
    },
    {
      "bufferView": 20,
      "componentType": 5126,
      "count": 1890,
      "max": [
        1,
        1,
        1
      ],
      "min": [
        -1,
        -1,
        -1
      ],
      "type": "VEC3"
    },
    {
      "bufferView": 21,
      "componentType": 5126,
      "count": 1890,
      "max": [
        -0.5,
        14.800000190734863,
        4.360000133514404
      ],
      "min": [
        -7.699999809265137,
        0.019999999552965164,
        -3.5999999046325684
      ],
      "type": "VEC3"
    },
    {
      "bufferView": 22,
      "componentType": 5126,
      "count": 1890,
      "max": [
        1,
        1,
        1
      ],
      "min": [
        -1,
        -1,
        -1
      ],
      "type": "VEC3"
    }
  ],
  "materials": [
    {
      "pbrMetallicRoughness": {
        "metallicFactor": 0,
        "roughnessFactor": 1
      },
      "name": "MB_5"
    },
    {
      "pbrMetallicRoughness": {
        "metallicFactor": 0,
        "roughnessFactor": 1
      },
      "name": "MB_5"
    },
    {
      "pbrMetallicRoughness": {
        "metallicFactor": 0,
        "roughnessFactor": 1
      },
      "name": "MB_5"
    },
    {
      "pbrMetallicRoughness": {
        "metallicFactor": 0,
        "roughnessFactor": 1
      },
      "name": "MB_5"
    },
    {
      "pbrMetallicRoughness": {
        "metallicFactor": 0,
        "roughnessFactor": 1
      },
      "name": "MB_5"
    },
    {
      "pbrMetallicRoughness": {
        "metallicFactor": 0,
        "roughnessFactor": 1
      },
      "name": "MB_5"
    },
    {
      "pbrMetallicRoughness": {
        "metallicFactor": 0,
        "roughnessFactor": 1
      },
      "name": "MB_5"
    },
    {
      "pbrMetallicRoughness": {
        "metallicFactor": 0,
        "roughnessFactor": 1
      },
      "name": "MB_5_custom_656720"
    },
    {
      "pbrMetallicRoughness": {
        "metallicFactor": 0,
        "roughnessFactor": 1
      },
      "name": "MB_5"
    },
    {
      "pbrMetallicRoughness": {
        "metallicFactor": 0,
        "roughnessFactor": 1
      },
      "name": "MB_5"
    },
    {
      "pbrMetallicRoughness": {
        "metallicFactor": 0,
        "roughnessFactor": 1
      },
      "name": "MB_5"
    }
  ],
  "meshes": [
    {
      "primitives": [
        {
          "mode": 4,
          "attributes": {
            "POSITION": 0,
            "NORMAL": 1
          },
          "material": 0
        }
      ]
    },
    {
      "primitives": [
        {
          "mode": 4,
          "attributes": {
            "POSITION": 2,
            "NORMAL": 3
          },
          "material": 1
        }
      ]
    },
    {
      "primitives": [
        {
          "mode": 4,
          "attributes": {
            "POSITION": 4,
            "NORMAL": 5
          },
          "material": 2
        }
      ]
    },
    {
      "primitives": [
        {
          "mode": 4,
          "attributes": {
            "POSITION": 6,
            "NORMAL": 7
          },
          "material": 3
        }
      ]
    },
    {
      "primitives": [
        {
          "mode": 4,
          "attributes": {
            "POSITION": 8,
            "NORMAL": 9
          },
          "material": 4
        }
      ]
    },
    {
      "primitives": [
        {
          "mode": 4,
          "attributes": {
            "POSITION": 10,
            "NORMAL": 11
          },
          "material": 5
        }
      ]
    },
    {
      "primitives": [
        {
          "mode": 4,
          "attributes": {
            "POSITION": 12,
            "NORMAL": 13
          },
          "material": 6
        }
      ]
    },
    {
      "primitives": [
        {
          "mode": 4,
          "attributes": {
            "POSITION": 14,
            "NORMAL": 15,
            "TEXCOORD_0": 16
          },
          "material": 7
        }
      ]
    },
    {
      "primitives": [
        {
          "mode": 4,
          "attributes": {
            "POSITION": 17,
            "NORMAL": 18
          },
          "material": 8
        }
      ]
    },
    {
      "primitives": [
        {
          "mode": 4,
          "attributes": {
            "POSITION": 19,
            "NORMAL": 20
          },
          "material": 9
        }
      ]
    },
    {
      "primitives": [
        {
          "mode": 4,
          "attributes": {
            "POSITION": 21,
            "NORMAL": 22
          },
          "material": 10
        }
      ]
    }
  ],
  "extensions": {
    "KHR_lights_punctual": {
      "lights": [
        {
          "name": "DirectionalLight",
          "color": [
            1,
            1,
            1
          ],
          "intensity": 1,
          "type": "directional"
        }
      ]
    }
  },
  "extensionsUsed": [
    "KHR_lights_punctual"
  ]
}